<svg width="739" height="739" viewBox="0 0 739 739" fill="none" xmlns="http://www.w3.org/2000/svg">
<circle cx="369.5" cy="369.5" r="369" stroke="#24292F"/>
<circle cx="716" cy="495" r="10" fill="#24292F"/>
<path d="M456.76 127.795L456.76 127.795L456.766 127.795C460.684 127.579 464.607 128.139 468.307 129.444C472.008 130.749 475.414 132.773 478.33 135.399C481.246 138.026 483.613 141.203 485.297 144.747C486.98 148.292 487.946 152.134 488.139 156.054L488.639 156.029L488.14 156.06C488.505 162.031 487.084 167.975 484.059 173.136C481.033 178.297 476.54 182.44 471.152 185.039C465.764 187.637 459.724 188.573 453.802 187.726C447.88 186.88 442.344 184.29 437.899 180.286C433.454 176.283 430.301 171.046 428.843 165.245C427.384 159.443 427.685 153.339 429.708 147.709C431.731 142.079 435.384 137.179 440.202 133.632C445.02 130.086 450.784 128.054 456.76 127.795Z" stroke="#24292F"/>
<path d="M121.669 440.018C159.238 482.116 229.869 510.392 309.971 510.392C390.425 510.392 460.794 482.116 498.272 440.026C483.786 477.601 458.38 510.006 425.298 533.043C391.457 556.609 351.21 569.242 309.972 569.242C268.735 569.242 228.487 556.609 194.646 533.043C161.562 510.004 136.154 477.596 121.669 440.018Z" stroke="#24292F"/>
<path d="M498.275 299.499C460.705 257.403 390.076 229.126 309.971 229.126C229.516 229.126 159.232 257.316 121.672 299.491C136.157 261.915 161.564 229.511 194.646 206.473C228.487 182.907 268.735 170.274 309.972 170.274C351.21 170.274 391.457 182.907 425.298 206.473C458.382 229.512 483.79 261.92 498.275 299.499Z" stroke="#24292F"/>
<path d="M174.157 560.884C182.82 564.432 189.855 571.076 193.892 579.524C196.02 583.998 197.254 588.845 197.525 593.793C198.02 603.142 195.02 612.342 189.108 619.602C183.196 626.862 174.796 631.664 165.54 633.073C156.283 634.483 146.834 632.399 139.029 627.228C131.224 622.056 125.622 614.167 123.311 605.094C121.001 596.02 122.148 586.412 126.529 578.138C130.91 569.863 138.212 563.514 147.015 560.325C155.818 557.136 165.492 557.335 174.157 560.884Z" stroke="#24292F"/>
<path d="M129.445 219.304C125.164 219.421 120.943 218.269 117.314 215.994C113.684 213.718 110.808 210.42 109.047 206.515C107.286 202.609 106.719 198.27 107.418 194.043C108.117 189.816 110.049 185.89 112.973 182.758C115.897 179.627 119.681 177.429 123.85 176.443C128.019 175.456 132.387 175.724 136.404 177.213C140.422 178.702 143.909 181.345 146.428 184.811C148.947 188.275 150.385 192.407 150.562 196.686C150.729 202.477 148.605 208.1 144.651 212.334C140.698 216.569 135.234 219.073 129.445 219.304Z" stroke="#24292F"/>
</svg>
