<svg width="38" height="38" viewBox="0 0 38 38" fill="none" xmlns="http://www.w3.org/2000/svg">
<path d="M30.875 33.25H7.125C6.49537 33.2492 5.89177 32.9987 5.44656 32.5534C5.00134 32.1082 4.75085 31.5046 4.75 30.875V7.125C4.75085 6.49537 5.00134 5.89177 5.44656 5.44656C5.89177 5.00134 6.49537 4.75085 7.125 4.75H19V7.125H7.125V30.875H30.875V19H33.25V30.875C33.2492 31.5046 32.9987 32.1082 32.5534 32.5534C32.1082 32.9987 31.5046 33.2492 30.875 33.25Z" fill="#24292F"/>
<path d="M23.75 2.375V4.75H31.5709L21.375 14.9459L23.0541 16.625L33.25 6.42912V14.25H35.625V2.375H23.75Z" fill="#24292F"/>
</svg>
