<svg width="773" height="273" viewBox="0 0 773 273" fill="none" xmlns="http://www.w3.org/2000/svg">
<path d="M22.022 247H161.304V224.12H105.248V55.38H161.304V32.5H22.022V55.38H78.078V224.12H22.022V247ZM274.459 226.694C239.853 226.694 224.409 206.102 224.409 145.756V134.316C224.409 73.398 239.853 52.806 274.459 52.806C309.351 52.806 324.509 73.112 324.509 134.316V145.756C324.509 206.388 309.351 226.694 274.459 226.694ZM197.525 148.616C197.525 221.26 224.123 249.86 274.459 249.86C324.795 249.86 351.393 221.26 351.393 148.616V131.456C351.393 58.24 325.081 29.64 274.459 29.64C224.123 29.64 197.525 58.526 197.525 131.456V148.616Z" fill="#24292F"/>
<path d="M418.806 92H426.309L430.213 80.41H448.635L452.539 92H460.408L443.694 46.25H435.52L418.806 92ZM432.226 74.615L439.241 53.875H439.79L446.744 74.615H432.226Z" fill="#24292F"/>
<path d="M467.509 92H474.219V73.334C474.219 68.088 476.476 64.123 482.149 64.123C487.029 64.123 488.676 67.051 488.676 70.772V92H495.386V70.162C495.386 62.537 491.238 58.45 484.284 58.45C479.77 58.45 476.11 60.158 473.914 64.245V59.06H467.509V92Z" fill="#24292F"/>
<path d="M517.633 92H525.136L529.04 80.41H547.462L551.366 92H559.235L542.521 46.25H534.347L517.633 92ZM531.053 74.615L538.068 53.875H538.617L545.571 74.615H531.053Z" fill="#24292F"/>
<path d="M567.557 92H574.816V46.25H567.557V92Z" fill="#24292F"/>
<path d="M424.113 125.217V129.06H417.952V134.306H424.113V162H430.823V134.306H439.302V129.06H430.823V125.705C430.823 123.021 431.433 121.618 434.483 121.618H439.485V116.25H433.263C426.431 116.25 424.113 119.3 424.113 125.217Z" fill="#24292F"/>
<path d="M445.528 162H452.238V143.7C452.238 138.454 455.471 134.611 461.327 134.611H464.255V128.572H461.083C455.715 128.572 453.214 131.927 452.177 134.672V129.06H445.528V162Z" fill="#24292F"/>
<path d="M478.159 162.61C483.222 162.61 487.065 160.78 489.2 157.425V162H495.483V139.125C495.483 132.293 490.481 128.45 481.697 128.45C472.974 128.45 468.216 132.293 468.033 139.613H474.56C474.926 135.343 476.939 133.696 481.697 133.696C486.699 133.696 488.895 135.587 488.895 139.918V141.992L477.488 143.151C470.656 143.761 466.752 147.421 466.752 153.216C466.752 159.194 471.022 162.61 478.159 162.61ZM473.523 152.606C473.523 149.678 475.475 148.031 479.44 147.543L488.895 146.506V148.885C488.895 154.192 485.662 157.364 479.928 157.364C475.841 157.364 473.523 155.778 473.523 152.606Z" fill="#24292F"/>
<path d="M542.896 140.65V162H549.606V139.735C549.606 132.537 545.641 128.45 538.687 128.45C534.051 128.45 531.001 130.28 528.622 134.428C527.036 130.585 523.62 128.45 518.923 128.45C514.836 128.45 511.969 129.975 509.895 133.452V129.06H503.49V162H510.2V143.09C510.2 137.417 512.701 134.123 517.154 134.123C520.936 134.123 523.193 136.563 523.193 140.65V162H529.903V142.663C529.964 137.051 532.343 134.123 536.857 134.123C540.761 134.123 542.896 136.441 542.896 140.65Z" fill="#24292F"/>
<path d="M571.183 162.61C579.662 162.61 585.396 158.523 586.006 151.935H579.479C578.564 155.595 575.697 157.303 571.244 157.303C565.327 157.303 562.887 154.253 562.582 146.933H586.494V143.639C586.494 133.818 581.187 128.45 571.244 128.45C561.118 128.45 556.055 134.245 556.055 145.53C556.055 156.754 561.118 162.61 571.183 162.61ZM562.704 142.297C563.314 136.258 565.815 133.696 571.366 133.696C576.978 133.696 579.845 136.38 580.089 142.297H562.704Z" fill="#24292F"/>
<path d="M600.516 162H607.897L614.363 136.624H614.79L621.256 162H628.637L637.97 129.06H630.955L624.977 154.253H624.55L618.267 129.243H610.825L604.725 154.253H604.298L598.198 129.06H591.183L600.516 162Z" fill="#24292F"/>
<path d="M658.469 162.61C668.656 162.61 674.268 156.754 674.268 145.53C674.268 134.306 668.656 128.45 658.469 128.45C648.16 128.45 642.67 134.306 642.67 145.53C642.67 156.754 648.16 162.61 658.469 162.61ZM649.502 145.53C649.502 137.417 652.186 134.001 658.469 134.001C664.691 134.001 667.375 137.417 667.375 145.53C667.375 153.643 664.691 157.059 658.469 157.059C652.186 157.059 649.502 153.643 649.502 145.53Z" fill="#24292F"/>
<path d="M681.248 162H687.958V143.7C687.958 138.454 691.191 134.611 697.047 134.611H699.975V128.572H696.803C691.435 128.572 688.934 131.927 687.897 134.672V129.06H681.248V162Z" fill="#24292F"/>
<path d="M727.314 162H735.671L720.665 145.408L734.817 129.06H726.826L715.358 142.541H712.918V116.25H706.208V162H712.918V147.97H715.236L727.314 162Z" fill="#24292F"/>
<path d="M424.113 195.217V199.06H417.952V204.306H424.113V232H430.823V204.306H439.302V199.06H430.823V195.705C430.823 193.021 431.433 191.618 434.483 191.618H439.485V186.25H433.263C426.431 186.25 424.113 189.3 424.113 195.217Z" fill="#24292F"/>
<path d="M458.611 232.61C468.798 232.61 474.41 226.754 474.41 215.53C474.41 204.306 468.798 198.45 458.611 198.45C448.302 198.45 442.812 204.306 442.812 215.53C442.812 226.754 448.302 232.61 458.611 232.61ZM449.644 215.53C449.644 207.417 452.328 204.001 458.611 204.001C464.833 204.001 467.517 207.417 467.517 215.53C467.517 223.643 464.833 227.059 458.611 227.059C452.328 227.059 449.644 223.643 449.644 215.53Z" fill="#24292F"/>
<path d="M481.389 232H488.099V213.7C488.099 208.454 491.332 204.611 497.188 204.611H500.116V198.572H496.944C491.576 198.572 489.075 201.927 488.038 204.672V199.06H481.389V232Z" fill="#24292F"/>
<path d="M545.195 232H551.539V186.25H544.829V203.208C542.999 200.158 539.278 198.45 534.703 198.45C525.797 198.45 520.551 204.794 520.551 215.713C520.551 226.632 525.797 232.61 534.459 232.61C539.461 232.61 543.365 230.597 545.195 227.059V232ZM527.383 215.652C527.383 207.722 530.189 204.123 536.106 204.123C542.023 204.123 544.89 207.6 544.89 215.53C544.89 223.277 542.084 226.937 536.106 226.937C530.189 226.937 527.383 223.399 527.383 215.652Z" fill="#24292F"/>
<path d="M573.863 232.61C582.342 232.61 588.076 228.523 588.686 221.935H582.159C581.244 225.595 578.377 227.303 573.924 227.303C568.007 227.303 565.567 224.253 565.262 216.933H589.174V213.639C589.174 203.818 583.867 198.45 573.924 198.45C563.798 198.45 558.735 204.245 558.735 215.53C558.735 226.754 563.798 232.61 573.863 232.61ZM565.384 212.297C565.994 206.258 568.495 203.696 574.046 203.696C579.658 203.696 582.525 206.38 582.769 212.297H565.384Z" fill="#24292F"/>
<path d="M608.442 232.61C617.775 232.61 622.533 229.194 622.533 222.484C622.533 217.604 619.971 214.676 614.359 213.456L606.795 211.809C603.562 211.077 602.22 209.918 602.22 207.844C602.22 205.221 604.477 203.696 608.503 203.696C612.529 203.696 614.481 205.282 614.908 208.759H621.374C621.374 202.049 616.616 198.45 608.32 198.45C600.024 198.45 595.388 201.927 595.388 208.149C595.388 212.968 598.133 215.896 603.684 217.116L610.699 218.641C614.42 219.495 615.701 220.593 615.701 222.85C615.701 225.839 613.261 227.364 608.32 227.364C603.257 227.364 601.061 225.656 600.817 221.508H594.29C594.412 229.011 598.987 232.61 608.442 232.61Z" fill="#24292F"/>
<path d="M629.302 232H636.012V199.06H629.302V232ZM629.302 193.326H636.012V186.25H629.302V193.326Z" fill="#24292F"/>
<path d="M658.948 244.749C668.708 244.749 673.527 240.906 673.527 233.159V199.06H667.244V203.757C665.475 200.402 661.693 198.45 656.996 198.45C648.334 198.45 643.027 204.611 643.027 214.859C643.027 225.046 648.151 231.146 656.691 231.146C661.205 231.146 664.926 229.377 666.878 226.388V233.403C666.878 237.49 664.316 239.442 658.948 239.442C653.824 239.442 651.262 237.673 651.079 233.83H644.43C644.491 241.15 649.493 244.749 658.948 244.749ZM649.859 214.859C649.859 207.6 652.665 204.062 658.338 204.062C664.011 204.062 666.817 207.661 666.817 214.798C666.817 221.874 663.95 225.534 658.277 225.534C652.665 225.534 649.859 221.996 649.859 214.859Z" fill="#24292F"/>
<path d="M682.082 232H688.792V213.334C688.792 208.088 691.049 204.123 696.722 204.123C701.602 204.123 703.249 207.051 703.249 210.772V232H709.959V210.162C709.959 202.537 705.811 198.45 698.857 198.45C694.343 198.45 690.683 200.158 688.487 204.245V199.06H682.082V232Z" fill="#24292F"/>
<path d="M731.546 232.61C740.025 232.61 745.759 228.523 746.369 221.935H739.842C738.927 225.595 736.06 227.303 731.607 227.303C725.69 227.303 723.25 224.253 722.945 216.933H746.857V213.639C746.857 203.818 741.55 198.45 731.607 198.45C721.481 198.45 716.418 204.245 716.418 215.53C716.418 226.754 721.481 232.61 731.546 232.61ZM723.067 212.297C723.677 206.258 726.178 203.696 731.729 203.696C737.341 203.696 740.208 206.38 740.452 212.297H723.067Z" fill="#24292F"/>
<path d="M753.864 232H760.574V213.7C760.574 208.454 763.807 204.611 769.663 204.611H772.591V198.572H769.419C764.051 198.572 761.55 201.927 760.513 204.672V199.06H753.864V232Z" fill="#24292F"/>
</svg>
