<svg width="63" height="31" viewBox="0 0 63 31" fill="none" xmlns="http://www.w3.org/2000/svg">
<path d="M52.48 27.231C47.761 27.231 45.655 24.423 45.655 16.194V14.634C45.655 6.32699 47.761 3.51899 52.48 3.51899C57.238 3.51899 59.305 6.28799 59.305 14.634V16.194C59.305 24.462 57.238 27.231 52.48 27.231ZM41.989 16.584C41.989 26.49 45.616 30.39 52.48 30.39C59.344 30.39 62.971 26.49 62.971 16.584V14.244C62.971 4.25999 59.383 0.359985 52.48 0.359985C45.616 0.359985 41.989 4.29899 41.989 14.244V16.584Z" fill="#24292F"/>
<path d="M0 0H35V3.13636H0V0Z" fill="#24292F"/>
<path d="M0 27.1818H35V30.3182H0V27.1818Z" fill="#24292F"/>
<path d="M20 3L20 28L16 28L16 3L20 3Z" fill="#24292F"/>
</svg>
