<svg width="1662" height="241" viewBox="0 0 1662 241" fill="none" xmlns="http://www.w3.org/2000/svg">
<path d="M1582.55 210.269C1547.22 210.269 1531.45 189.245 1531.45 127.633V115.953C1531.45 53.7571 1547.22 32.7331 1582.55 32.7331C1618.17 32.7331 1633.65 53.4651 1633.65 115.953V127.633C1633.65 189.537 1618.17 210.269 1582.55 210.269ZM1504 130.553C1504 204.721 1531.16 233.921 1582.55 233.921C1633.94 233.921 1661.1 204.721 1661.1 130.553V113.033C1661.1 38.2811 1634.23 9.08105 1582.55 9.08105C1531.16 9.08105 1504 38.5731 1504 113.033V130.553Z" fill="#24292F"/>
<path d="M0 12H946V28C946 32.4183 942.418 36 938 36H7.99999C3.58171 36 0 32.4183 0 28V12Z" fill="#24292F"/>
<path d="M0 216.465C0 212.047 3.58172 208.465 8 208.465H938C942.418 208.465 946 212.047 946 216.465V232H0V216.465Z" fill="#24292F"/>
<rect x="487" y="33" width="179" height="28" transform="rotate(90 487 33)" fill="#24292F"/>
<path d="M1040.06 70.3535H1048.23L1052.48 57.7298H1072.55L1076.8 70.3535H1085.37L1067.16 20.5231H1058.26L1040.06 70.3535ZM1054.67 51.4179L1062.31 28.8281H1062.91L1070.49 51.4179H1054.67ZM1093.1 70.3535H1100.41V50.0227C1100.41 44.3088 1102.87 39.9902 1109.05 39.9902C1114.36 39.9902 1116.16 43.1793 1116.16 47.2322V70.3535H1123.47V46.5678C1123.47 38.2627 1118.95 33.8112 1111.37 33.8112C1106.46 33.8112 1102.47 35.6715 1100.08 40.123V34.4756H1093.1V70.3535ZM1147.7 70.3535H1155.87L1160.12 57.7298H1180.19L1184.44 70.3535H1193.01L1174.81 20.5231H1165.9L1147.7 70.3535ZM1162.31 51.4179L1169.96 28.8281H1170.55L1178.13 51.4179H1162.31ZM1202.07 70.3535H1209.98V20.5231H1202.07V70.3535ZM1045.84 106.29V110.476H1039.13V116.189H1045.84V146.354H1053.15V116.189H1062.38V110.476H1053.15V106.821C1053.15 103.898 1053.81 102.37 1057.13 102.37H1062.58V96.5231H1055.8C1048.36 96.5231 1045.84 99.8451 1045.84 106.29ZM1069.16 146.354H1076.47V126.421C1076.47 120.707 1079.99 116.522 1086.37 116.522H1089.56V109.944H1086.1C1080.26 109.944 1077.53 113.598 1076.4 116.588V110.476H1069.16V146.354ZM1104.7 147.018C1110.22 147.018 1114.4 145.025 1116.73 141.37V146.354H1123.57V121.438C1123.57 113.997 1118.12 109.811 1108.56 109.811C1099.05 109.811 1093.87 113.997 1093.67 121.97H1100.78C1101.18 117.319 1103.37 115.525 1108.56 115.525C1114 115.525 1116.4 117.585 1116.4 122.302V124.561L1103.97 125.823C1096.53 126.488 1092.28 130.474 1092.28 136.786C1092.28 143.297 1096.93 147.018 1104.7 147.018ZM1099.65 136.122C1099.65 132.933 1101.78 131.139 1106.1 130.607L1116.4 129.478V132.069C1116.4 137.849 1112.87 141.304 1106.63 141.304C1102.18 141.304 1099.65 139.577 1099.65 136.122ZM1175.21 123.099V146.354H1182.52V122.103C1182.52 114.263 1178.2 109.811 1170.63 109.811C1165.58 109.811 1162.26 111.804 1159.67 116.322C1157.94 112.137 1154.22 109.811 1149.1 109.811C1144.65 109.811 1141.53 111.472 1139.27 115.259V110.476H1132.29V146.354H1139.6V125.757C1139.6 119.578 1142.33 115.99 1147.18 115.99C1151.29 115.99 1153.75 118.648 1153.75 123.099V146.354H1161.06V125.292C1161.13 119.179 1163.72 115.99 1168.64 115.99C1172.89 115.99 1175.21 118.515 1175.21 123.099ZM1206.02 147.018C1215.26 147.018 1221.5 142.566 1222.17 135.391H1215.06C1214.06 139.377 1210.94 141.238 1206.09 141.238C1199.65 141.238 1196.99 137.916 1196.66 129.943H1222.7V126.355C1222.7 115.658 1216.92 109.811 1206.09 109.811C1195.06 109.811 1189.55 116.123 1189.55 128.415C1189.55 140.64 1195.06 147.018 1206.02 147.018ZM1196.79 124.893C1197.45 118.316 1200.18 115.525 1206.22 115.525C1212.34 115.525 1215.46 118.448 1215.72 124.893H1196.79ZM1237.97 146.354H1246.01L1253.05 118.714H1253.52L1260.56 146.354H1268.6L1278.77 110.476H1271.13L1264.62 137.916H1264.15L1257.31 110.675H1249.2L1242.56 137.916H1242.09L1235.45 110.476H1227.81L1237.97 146.354ZM1301.09 147.018C1312.19 147.018 1318.3 140.64 1318.3 128.415C1318.3 116.189 1312.19 109.811 1301.09 109.811C1289.87 109.811 1283.89 116.189 1283.89 128.415C1283.89 140.64 1289.87 147.018 1301.09 147.018ZM1291.33 128.415C1291.33 119.578 1294.25 115.857 1301.09 115.857C1307.87 115.857 1310.79 119.578 1310.79 128.415C1310.79 137.251 1307.87 140.972 1301.09 140.972C1294.25 140.972 1291.33 137.251 1291.33 128.415ZM1325.9 146.354H1333.21V126.421C1333.21 120.707 1336.73 116.522 1343.11 116.522H1346.3V109.944H1342.85C1337 109.944 1334.28 113.598 1333.15 116.588V110.476H1325.9V146.354ZM1376.08 146.354H1385.18L1368.84 128.282L1384.25 110.476H1375.55L1363.06 125.159H1360.4V96.5231H1353.09V146.354H1360.4V131.072H1362.92L1376.08 146.354ZM1045.84 182.29V186.476H1039.13V192.189H1045.84V222.354H1053.15V192.189H1062.38V186.476H1053.15V182.821C1053.15 179.898 1053.81 178.37 1057.13 178.37H1062.58V172.523H1055.8C1048.36 172.523 1045.84 175.845 1045.84 182.29ZM1083.41 223.018C1094.51 223.018 1100.62 216.64 1100.62 204.415C1100.62 192.189 1094.51 185.811 1083.41 185.811C1072.18 185.811 1066.2 192.189 1066.2 204.415C1066.2 216.64 1072.18 223.018 1083.41 223.018ZM1073.64 204.415C1073.64 195.578 1076.57 191.857 1083.41 191.857C1090.19 191.857 1093.11 195.578 1093.11 204.415C1093.11 213.251 1090.19 216.972 1083.41 216.972C1076.57 216.972 1073.64 213.251 1073.64 204.415ZM1108.22 222.354H1115.53V202.421C1115.53 196.707 1119.05 192.522 1125.43 192.522H1128.62V185.944H1125.16C1119.32 185.944 1116.59 189.598 1115.46 192.588V186.476H1108.22V222.354ZM1177.72 222.354H1184.63V172.523H1177.32V190.994C1175.33 187.672 1171.27 185.811 1166.29 185.811C1156.59 185.811 1150.88 192.721 1150.88 204.614C1150.88 216.507 1156.59 223.018 1166.02 223.018C1171.47 223.018 1175.72 220.825 1177.72 216.972V222.354ZM1158.32 204.547C1158.32 195.91 1161.37 191.99 1167.82 191.99C1174.26 191.99 1177.39 195.777 1177.39 204.415C1177.39 212.853 1174.33 216.839 1167.82 216.839C1161.37 216.839 1158.32 212.985 1158.32 204.547ZM1208.94 223.018C1218.18 223.018 1224.42 218.566 1225.09 211.391H1217.98C1216.98 215.377 1213.86 217.238 1209.01 217.238C1202.56 217.238 1199.91 213.916 1199.57 205.943H1225.62V202.355C1225.62 191.658 1219.84 185.811 1209.01 185.811C1197.98 185.811 1192.47 192.123 1192.47 204.415C1192.47 216.64 1197.98 223.018 1208.94 223.018ZM1199.71 200.893C1200.37 194.316 1203.1 191.525 1209.14 191.525C1215.25 191.525 1218.38 194.448 1218.64 200.893H1199.71ZM1246.61 223.018C1256.77 223.018 1261.95 219.297 1261.95 211.989C1261.95 206.674 1259.16 203.484 1253.05 202.156L1244.81 200.362C1241.29 199.564 1239.83 198.302 1239.83 196.043C1239.83 193.186 1242.29 191.525 1246.67 191.525C1251.06 191.525 1253.18 193.253 1253.65 197.04H1260.69C1260.69 189.731 1255.51 185.811 1246.47 185.811C1237.44 185.811 1232.39 189.598 1232.39 196.375C1232.39 201.624 1235.38 204.813 1241.42 206.142L1249.06 207.803C1253.12 208.733 1254.51 209.929 1254.51 212.387C1254.51 215.643 1251.85 217.304 1246.47 217.304C1240.96 217.304 1238.57 215.444 1238.3 210.926H1231.19C1231.32 219.098 1236.31 223.018 1246.61 223.018ZM1269.33 222.354H1276.64V186.476H1269.33V222.354ZM1269.33 180.23H1276.64V172.523H1269.33V180.23ZM1301.62 236.24C1312.25 236.24 1317.5 232.054 1317.5 223.616V186.476H1310.65V191.592C1308.73 187.937 1304.61 185.811 1299.49 185.811C1290.06 185.811 1284.28 192.522 1284.28 203.684C1284.28 214.779 1289.86 221.423 1299.16 221.423C1304.08 221.423 1308.13 219.497 1310.25 216.241V223.882C1310.25 228.333 1307.46 230.459 1301.62 230.459C1296.04 230.459 1293.25 228.532 1293.05 224.347H1285.8C1285.87 232.32 1291.32 236.24 1301.62 236.24ZM1291.72 203.684C1291.72 195.777 1294.77 191.924 1300.95 191.924C1307.13 191.924 1310.19 195.844 1310.19 203.617C1310.19 211.324 1307.06 215.311 1300.89 215.311C1294.77 215.311 1291.72 211.457 1291.72 203.684ZM1326.81 222.354H1334.12V202.023C1334.12 196.309 1336.58 191.99 1342.76 191.99C1348.07 191.99 1349.87 195.179 1349.87 199.232V222.354H1357.18V198.568C1357.18 190.263 1352.66 185.811 1345.08 185.811C1340.17 185.811 1336.18 187.672 1333.79 192.123V186.476H1326.81V222.354ZM1380.69 223.018C1389.92 223.018 1396.17 218.566 1396.83 211.391H1389.73C1388.73 215.377 1385.61 217.238 1380.76 217.238C1374.31 217.238 1371.65 213.916 1371.32 205.943H1397.37V202.355C1397.37 191.658 1391.59 185.811 1380.76 185.811C1369.73 185.811 1364.21 192.123 1364.21 204.415C1364.21 216.64 1369.73 223.018 1380.69 223.018ZM1371.45 200.893C1372.12 194.316 1374.84 191.525 1380.89 191.525C1387 191.525 1390.12 194.448 1390.39 200.893H1371.45ZM1405 222.354H1412.31V202.421C1412.31 196.707 1415.83 192.522 1422.21 192.522H1425.4V185.944H1421.94C1416.09 185.944 1413.37 189.598 1412.24 192.588V186.476H1405V222.354Z" fill="#24292F"/>
</svg>
